<svg xmlns="http://www.w3.org/2000/svg" version="1.1" xmlns:xlink="http://www.w3.org/1999/xlink" width="512" height="512" x="0" y="0" viewBox="0 0 74 74" style="enable-background:new 0 0 512 512" xml:space="preserve" class=""><g><path d="M55.383 72c-8.962 0-22.14-7.065-34.188-19.113C4.865 36.554-2.312 18.146 4.856 10.978l7.491-7.49a4.814 4.814 0 0 1 6.8 0l10.417 10.419a4.813 4.813 0 0 1 0 6.8L25.673 24.6c-2.2 2.2.237 9.543 7.253 16.558s14.355 9.454 16.558 7.253l3.891-3.891a4.807 4.807 0 0 1 6.8 0l10.42 10.419a4.813 4.813 0 0 1 0 6.8L63.1 69.224A10.534 10.534 0 0 1 55.383 72zM15.746 4.081a2.8 2.8 0 0 0-1.985.821l-7.49 7.49C.107 18.555 7.59 36.451 22.609 51.47s32.915 22.5 39.079 16.34l7.491-7.491a2.813 2.813 0 0 0 0-3.97L58.759 45.93a2.875 2.875 0 0 0-3.97 0L50.9 49.821c-3.4 3.4-11.916.218-19.386-7.252s-10.658-15.985-7.255-19.387l3.891-3.891a2.811 2.811 0 0 0 0-3.97L17.731 4.9a2.8 2.8 0 0 0-1.985-.819z" fill="#011e63" opacity="1" data-original="#000000" class=""></path><path d="m9.359 7.888 1.414-1.414 15.801 15.802-1.414 1.414zM50.38 48.918l1.413-1.414 15.801 15.8-1.414 1.414zM69 36.08h-2a29.033 29.033 0 0 0-29-29v-2a31.034 31.034 0 0 1 31 31z" fill="#011e63" opacity="1" data-original="#000000" class=""></path><path d="M60.725 36.08h-2A20.748 20.748 0 0 0 38 15.355v-2A22.751 22.751 0 0 1 60.725 36.08z" fill="#011e63" opacity="1" data-original="#000000" class=""></path><path d="M52.448 36.96h-2A12.462 12.462 0 0 0 38 24.512v-2A14.464 14.464 0 0 1 52.448 36.96z" fill="#011e63" opacity="1" data-original="#000000" class=""></path></g></svg>