<svg xmlns="http://www.w3.org/2000/svg" version="1.1" xmlns:xlink="http://www.w3.org/1999/xlink" width="512" height="512" x="0" y="0" viewBox="0 0 32 32" style="enable-background:new 0 0 512 512" xml:space="preserve" class=""><g><path d="M27 6.69C24.49 4.18 20 3.25 16 7a8.13 8.13 0 0 0-7.65-2.25A7.49 7.49 0 0 0 3.05 10c-.73 2.73.2 5.65 2.55 8l8.79 8.78a2.27 2.27 0 0 0 3.22 0L26.4 18c4.11-4.06 3.19-8.72.6-11.31zm-1.31 10.65-8.79 8.79a1.29 1.29 0 0 1-1.8 0l-8.79-8.79c-2.13-2.13-2.94-4.63-2.29-7a6.41 6.41 0 0 1 6.21-4.8A7.7 7.7 0 0 1 15.64 8a.53.53 0 0 0 .36.15.51.51 0 0 0 .35-.15c3.63-3.63 7.7-2.86 10-.61s2.96 6.32-.66 9.95z" data-name="Layer 16" fill="#000000" opacity="1" data-original="#000000"></path></g></svg>